<?xml version="1.0" standalone="no"?>
<!DOCTYPE svg PUBLIC "-//W3C//DTD SVG 20010904//EN"
 "http://www.w3.org/TR/2001/REC-SVG-20010904/DTD/svg10.dtd">
<svg version="1.0" xmlns="http://www.w3.org/2000/svg"
 width="860.000000pt" height="611.000000pt" viewBox="0 0 860.000000 611.000000"
 preserveAspectRatio="xMidYMid meet">

<g transform="translate(0.000000,611.000000) scale(0.100000,-0.100000)"
fill="#000000" stroke="none">
<path d="M6154 4876 c-49 -21 -74 -61 -74 -116 l0 -47 84 -5 c62 -3 92 -10
120 -26 20 -12 39 -22 42 -22 2 0 4 30 4 68 0 80 -23 126 -75 148 -42 17 -61
17 -101 0z"/>
<path d="M4597 4546 l-18 -56 -62 0 -62 -1 23 -19 c13 -11 35 -28 49 -38 l26
-19 -17 -48 c-9 -27 -16 -52 -16 -57 0 -4 21 7 47 26 l48 35 47 -35 c27 -19
48 -30 48 -26 0 5 -7 30 -16 57 l-17 48 26 19 c14 10 36 27 49 38 l23 19 -62
1 -61 0 -19 56 -19 56 -17 -56z"/>
<path d="M2520 4375 l0 -125 910 0 910 0 0 125 0 125 -910 0 -910 0 0 -125z
m190 35 c28 -28 25 -64 -7 -90 -32 -25 -69 -20 -95 12 -24 27 -23 47 4 75 27
29 71 30 98 3z m190 0 c42 -42 11 -103 -52 -103 -34 0 -68 32 -68 64 0 29 36
59 70 59 17 0 39 -9 50 -20z m190 0 c25 -25 25 -51 2 -81 -37 -45 -122 -16
-122 42 0 29 36 59 70 59 17 0 39 -9 50 -20z"/>
<path d="M6080 4375 l0 -125 65 0 65 0 0 125 0 125 -65 0 -65 0 0 -125z"/>
<path d="M5672 4220 c-217 -57 -397 -223 -463 -430 -30 -91 -37 -261 -15 -355
29 -121 79 -209 176 -305 139 -140 274 -195 465 -194 130 2 228 29 339 94 37
22 71 40 75 40 3 0 88 -80 189 -178 l183 -177 -7 -38 c-7 -38 -7 -38 -45 -32
-30 5 -47 2 -74 -15 -57 -35 -39 -80 32 -80 16 0 37 -6 47 -13 17 -13 17 -15
-3 -52 -24 -45 -28 -107 -7 -124 11 -10 18 1 35 58 26 86 67 164 125 239 58
75 74 89 81 69 4 -8 -17 -48 -48 -94 -51 -76 -85 -155 -106 -250 -11 -52 2
-56 48 -17 39 33 57 92 41 140 -7 20 -10 38 -6 41 3 3 27 8 53 10 59 7 93 35
93 76 0 25 -38 68 -261 294 l-261 264 18 27 c26 40 49 89 75 162 20 56 24 84
24 205 0 121 -4 149 -24 205 -40 113 -74 171 -143 245 -57 61 -85 81 -170 124
-162 81 -313 101 -466 61z m303 -106 c299 -77 477 -417 371 -708 -140 -387
-630 -492 -910 -196 -82 87 -123 170 -143 291 -31 184 18 332 156 469 120 119
213 158 376 159 52 1 116 -6 150 -15z"/>
<path d="M3840 3510 l-233 -170 -229 0 -229 0 -49 -37 -50 -37 0 -143 c0 -79
2 -143 5 -143 3 0 50 33 105 74 l101 74 237 7 237 7 38 31 c27 20 53 59 88
128 38 76 54 99 69 99 29 0 34 -22 15 -65 -8 -21 -13 -40 -11 -42 2 -3 58 35
123 84 l118 88 80 5 80 5 3 103 3 102 -135 0 -134 0 -232 -170z"/>
<path d="M4393 3623 c-31 -6 -30 -43 2 -71 14 -12 27 -22 30 -22 16 0 45 45
45 70 0 26 -3 30 -27 29 -16 -1 -38 -4 -50 -6z"/>
<path d="M2105 3387 c-81 -29 -85 -33 -84 -70 1 -43 22 -110 35 -114 15 -5 25
49 12 64 -6 7 -8 20 -4 28 6 17 36 21 36 4 0 -6 5 -7 13 -2 6 4 39 8 72 8 l60
0 3 38 c6 71 -34 83 -143 44z"/>
<path d="M4385 3381 c-51 -31 -67 -55 -63 -98 l3 -38 15 30 c16 31 20 32 80
18 l35 -9 5 -91 c3 -50 9 -95 13 -99 4 -4 7 3 7 15 0 12 13 33 30 48 17 13 30
34 30 45 0 31 17 55 45 62 31 8 42 45 23 82 -19 40 -42 51 -71 35 -20 -11 -29
-10 -55 3 -40 21 -60 20 -97 -3z m122 -208 c-17 -18 -22 -8 -11 22 5 12 10 13
17 6 8 -8 6 -16 -6 -28z"/>
<path d="M3355 3070 c-51 -20 -85 -83 -85 -155 0 -28 -11 -66 -30 -107 -26
-52 -30 -71 -25 -109 6 -45 5 -47 -34 -78 -23 -18 -41 -36 -41 -41 0 -4 15
-26 33 -47 l33 -40 66 27 c86 35 158 87 181 130 16 30 18 53 14 155 l-4 120
39 35 c47 42 44 58 -17 95 -44 25 -92 31 -130 15z"/>
<path d="M5275 2690 c-36 -14 -66 -57 -72 -99 -4 -31 1 -53 21 -96 16 -31 34
-55 43 -55 10 0 13 6 9 16 -3 9 -9 33 -12 55 -6 35 -4 39 14 39 28 0 92 39 92
56 0 25 21 15 33 -16 11 -30 30 -39 42 -21 9 16 -52 106 -80 119 -30 14 -61
14 -90 2z"/>
<path d="M4646 2631 l-17 -61 -57 0 c-55 -1 -56 -1 -36 -18 11 -9 31 -24 44
-33 l25 -16 -17 -54 c-10 -29 -16 -54 -14 -56 1 -2 20 10 42 27 21 16 44 30
50 30 5 0 29 -14 52 -31 47 -34 49 -32 26 35 -9 26 -15 48 -13 50 2 2 23 17
47 34 l44 31 -59 3 -58 3 -21 59 -21 59 -17 -62z"/>
<path d="M2425 2516 c-52 -23 -66 -47 -72 -130 -5 -67 -8 -76 -26 -76 -18 0
-19 -4 -13 -52 4 -29 8 -78 10 -108 3 -72 28 -384 31 -388 2 -2 35 10 75 27
40 17 76 29 81 26 4 -3 15 8 24 25 18 34 30 40 22 10 -4 -17 0 -20 33 -20 30
0 39 -4 43 -21 8 -30 -26 -59 -68 -59 -19 0 -35 -4 -35 -9 0 -15 -123 -100
-164 -114 l-37 -12 -2 -112 c-1 -61 -5 -115 -9 -118 -4 -4 -29 4 -56 18 -27
14 -65 29 -86 32 l-37 7 3 -43 3 -44 88 -3 c48 -1 87 -7 87 -12 0 -23 -30
-503 -35 -562 -5 -58 -4 -68 9 -68 21 0 21 -40 -1 -85 -15 -31 -15 -37 -3 -45
20 -13 70 -13 70 0 0 5 -7 30 -15 55 -16 47 -14 65 10 65 15 0 16 5 45 180 40
240 72 385 87 400 14 13 15 13 9 -4 -10 -29 -48 -431 -50 -526 0 -47 -5 -91
-10 -98 -4 -7 -5 -16 -2 -20 10 -9 177 -18 183 -9 5 8 -46 31 -94 42 -26 5
-33 12 -33 30 0 13 4 25 10 27 5 2 25 89 45 195 19 105 46 225 59 265 49 143
68 232 72 333 2 55 6 114 9 130 3 17 5 93 6 170 0 146 -14 219 -63 320 -18 38
-15 36 44 -28 65 -70 99 -84 116 -49 5 9 17 46 27 80 15 53 17 71 8 105 -13
46 -8 61 10 36 11 -15 14 -14 30 7 l18 24 -151 0 -150 0 0 64 c0 34 -5 77 -11
94 -20 57 -79 77 -144 48z m126 -171 c1 -36 2 -37 9 -15 9 24 9 24 7 -5 -1
-18 -7 -29 -14 -27 -7 1 -13 -5 -13 -13 0 -8 -4 -15 -9 -15 -5 0 -11 7 -15 15
-4 10 -20 15 -50 15 -36 0 -45 -4 -49 -21 -7 -26 -27 -16 -27 14 0 16 -3 18
-9 9 -6 -10 -10 -8 -14 9 -4 13 -2 26 2 29 5 3 10 14 13 25 3 17 10 19 44 17
32 -3 47 2 70 21 l29 25 12 -21 c7 -12 13 -40 14 -62z m-124 -206 c45 -15 111
3 121 32 7 18 10 16 25 -17 10 -20 16 -39 13 -41 -3 -3 -19 0 -36 5 -17 6 -44
9 -59 6 -25 -5 -29 -12 -34 -46 -9 -64 -23 -69 -63 -24 -19 22 -40 57 -46 79
-11 35 -10 41 7 54 18 12 21 11 28 -11 5 -16 21 -29 44 -37z"/>
<path d="M1911 2373 c-24 -276 -28 -294 -121 -570 l-89 -262 37 -11 c20 -5 42
-10 49 -10 20 0 240 408 278 515 10 28 21 54 25 58 12 14 63 -116 64 -163 0
-25 -3 -132 -8 -237 l-9 -193 52 0 c46 0 51 2 51 23 1 12 5 55 9 96 8 63 6 82
-12 130 -28 79 -30 248 -3 309 21 46 22 34 -26 309 l-21 121 -106 7 c-58 3
-118 8 -132 11 l-26 5 -12 -138z"/>
<path d="M4322 2475 c-10 -21 -18 -25 -57 -25 l-45 0 0 -39 c0 -21 -3 -53 -6
-70 l-6 -31 -334 0 c-216 0 -334 -4 -334 -10 0 -6 -47 -10 -121 -10 l-120 0
-25 -55 c-28 -61 -34 -67 -53 -55 -11 6 -12 17 -3 51 10 41 10 45 -11 61 -18
15 -44 18 -153 18 l-131 0 5 -30 c3 -20 -4 -44 -21 -72 -17 -30 -26 -62 -28
-103 l-4 -60 186 -3 186 -2 12 -168 c7 -92 18 -261 25 -375 7 -114 16 -210 19
-213 3 -4 26 -9 50 -11 l45 -5 7 198 c4 110 5 279 2 376 -3 98 -1 180 3 183
17 11 22 -137 15 -446 l-7 -319 39 0 39 0 22 223 c13 122 31 297 40 390 l16
167 153 0 153 0 0 -230 0 -230 -25 -16 c-44 -29 -152 -63 -219 -70 -60 -6 -64
-8 -55 -25 9 -18 28 -19 336 -19 l326 0 -23 -25 c-13 -14 -21 -28 -17 -31 3
-3 29 -1 58 6 36 9 53 18 57 32 4 18 12 19 91 14 47 -3 93 -5 101 -5 8 0 153
3 323 7 l307 7 0 -108 c0 -104 -2 -112 -40 -201 -22 -52 -65 -147 -96 -212
l-57 -118 49 -43 c87 -77 115 -69 83 23 l-21 61 112 164 c121 179 114 162 135
362 9 78 27 74 50 -10 10 -38 21 -75 26 -84 4 -9 15 -117 24 -240 9 -123 21
-232 26 -242 6 -10 8 -26 5 -35 -3 -9 -2 -22 2 -27 8 -12 116 -55 138 -55 23
0 -9 54 -51 86 -36 27 -45 44 -22 44 9 0 13 27 15 97 2 54 7 157 13 228 11
140 8 203 -21 450 -10 88 -21 184 -24 213 l-5 52 166 0 167 0 -39 26 c-22 14
-48 37 -58 50 -18 25 -18 26 3 76 12 28 28 70 35 94 11 38 11 45 -4 58 -30 27
-39 21 -73 -44 -32 -63 -34 -65 -75 -68 -37 -3 -43 0 -43 16 0 11 -9 48 -20
83 -21 69 -117 209 -151 221 -10 4 -18 4 -18 0 4 -23 -5 -35 -36 -48 -19 -7
-44 -14 -55 -14 -25 0 -74 46 -64 61 15 25 -57 -24 -85 -58 -33 -40 -34 -51
-3 -34 33 18 60 13 78 -14 21 -33 16 -71 -31 -222 -20 -68 -35 -130 -31 -138
3 -8 15 -15 27 -15 16 0 20 4 14 18 -35 88 4 184 89 223 53 24 90 24 143 -2
60 -29 93 -87 93 -164 0 -55 -2 -60 -43 -101 -24 -23 -56 -45 -72 -49 -17 -3
-66 -18 -110 -32 -44 -14 -99 -26 -123 -27 l-43 -1 5 -50 c3 -27 8 -88 12
-134 l7 -84 -58 7 c-67 8 -159 37 -209 67 l-36 21 0 139 0 139 96 0 c95 0 96
0 90 23 -3 12 -6 55 -6 95 l0 72 -260 0 c-239 0 -260 1 -260 17 0 10 5 91 11
181 6 89 8 178 5 196 -6 33 -7 34 -44 25 -67 -15 -110 -11 -117 11 -9 27 -19
25 -33 -5z m-4 -797 c-3 -180 -5 -203 -20 -206 -22 -4 -26 19 -34 231 l-6 177
31 0 31 0 -2 -202z m183 107 c16 -49 40 -130 54 -178 24 -87 24 -88 3 -85 -16
2 -33 35 -82 158 -34 85 -68 165 -75 178 -12 23 -11 23 29 20 l42 -3 29 -90z"/>
<path d="M6080 2175 l0 -135 44 0 c128 0 217 45 260 132 32 64 33 88 3 116
-22 20 -33 22 -165 22 l-142 0 0 -135z"/>
<path d="M6595 1913 c-16 -2 -49 -6 -71 -9 l-42 -5 2 -439 c2 -242 4 -442 7
-444 2 -2 22 -6 44 -7 39 -4 39 -3 53 41 10 31 14 89 13 185 -1 180 3 192 39
127 58 -100 118 -124 207 -81 43 21 163 141 163 164 0 7 -21 28 -46 48 l-46
36 -37 -49 c-45 -60 -85 -93 -108 -88 -38 7 -48 54 -48 228 l0 166 -44 67
c-24 37 -46 66 -50 66 -3 -1 -19 -4 -36 -6z"/>
<path d="M6991 1563 l-22 -18 28 -27 c33 -32 93 -49 93 -26 0 8 -17 31 -38 51
-38 37 -39 38 -61 20z"/>
<path d="M1686 1465 c-21 -31 -20 -33 7 -56 39 -34 70 -47 132 -54 56 -7 59
-6 44 9 -8 9 -31 25 -50 34 -21 10 -35 26 -37 40 -2 12 -5 22 -6 22 -2 0 -19
7 -39 15 -34 14 -36 14 -51 -10z"/>
<path d="M3300 1182 l0 -39 133 -10 c72 -6 136 -8 140 -3 9 8 -62 53 -100 64
-13 3 -32 9 -43 12 -14 4 -20 1 -20 -10 0 -12 -4 -13 -27 -1 -16 7 -40 16 -55
19 -27 6 -28 5 -28 -32z"/>
<path d="M6463 936 c-41 -36 -22 -50 45 -35 45 9 52 14 52 35 0 21 -5 24 -34
24 -23 0 -45 -9 -63 -24z"/>
<path d="M2530 583 c0 -10 345 -13 1690 -13 1345 0 1690 3 1690 13 0 9 -345
12 -1690 12 -1345 0 -1690 -3 -1690 -12z"/>
</g>
</svg>
